<svg xmlns="http://www.w3.org/2000/svg" viewBox="0 0 217.41 182.2"><defs><style>.cls-1{fill:none;}.cls-2{fill:#333;}.cls-2,.cls-3{stroke:#fff;stroke-miterlimit:10;}.cls-3{fill:#fa8334;}</style></defs><title>favicon</title><g id="Layer_2" data-name="Layer 2"><g id="Layer_1-2" data-name="Layer 1"><path class="cls-1" d="M96.8,28.19,102,37.25,119.21,67H128L96.81,13l-34,59c3.16-.56,6.37-1.08,9.61-1.55l19.17-33.2Z"/><path class="cls-1" d="M135.7,107.66,123.94,87.29c-26.63,4-49.52,11.19-66,20.37Z"/><path class="cls-2" d="M96.8,40.28l19,32.83q3.21-.06,6.45-.06,8.32,0,16.41.37L96.8,1,50.85,80.57c8-1.82,16.45-3.34,25.3-4.53ZM62.78,72l34-58.93,31.15,54h-8.75L102,37.25,96.8,28.19l-5.24,9.06L72.39,70.46C69.15,70.93,65.94,71.45,62.78,72Z"/><path class="cls-3" d="M68.62,181.71c-23.7-10.41-38.18-24.35-38.18-39.66a27.23,27.23,0,0,1,4.62-14.75H169.72L145.18,84.81c9.34-.77,19-1.18,28.9-1.18a346.11,346.11,0,0,1,38.49,2.12c-.71-.23-1.43-.44-2.15-.66.72.22,1.44.43,2.15.66L215,86c-2.16-.55-4.36-1.08-6.6-1.57h0a315.85,315.85,0,0,0-67.51-7h-.42c-5.57,0-11.07.13-16.47.38q-2.7.14-5.37.3h0A296.83,296.83,0,0,0,71.09,84.8c-1.24.28-2.48.57-3.7.87A200.66,200.66,0,0,0,43.67,93C17.06,103.23.5,117.61.5,133.55.5,154,27.81,171.91,68.62,181.71Zm55.32-94.42,11.76,20.37H58C74.42,98.48,97.31,91.32,123.94,87.29Z"/></g></g></svg>