<svg xmlns="http://www.w3.org/2000/svg" viewBox="0 0 696.33 180.71"><defs><style>.cls-1{fill:none;}.cls-2{fill:#333;}.cls-3{fill:#fa8334;}</style></defs><title>logo_1</title><g id="Layer_2" data-name="Layer 2"><g id="Objects"><path class="cls-1" d="M96.3,27.19l5.23,9.06L118.71,66h3c1.91,0,3.84,0,5.75,0l-31.15-54L62.28,71c3.16-.56,6.37-1.08,9.61-1.55L91.06,36.25Z"/><path class="cls-1" d="M135.2,106.66,123.44,86.29c-26.63,4-49.52,11.19-66,20.37Z"/><path class="cls-2" d="M96.3,39.28l19,32.83q3.21-.06,6.45-.06,8.33,0,16.41.37L96.3,0,50.35,79.57c8-1.82,16.45-3.34,25.3-4.53ZM62.28,71l34-58.93,31.15,54c-1.91,0-3.84,0-5.75,0h-3L101.53,36.25,96.3,27.19l-5.24,9.06L71.89,69.46C68.65,69.93,65.44,70.45,62.28,71Z"/><path class="cls-3" d="M68.12,180.71c-23.7-10.41-38.18-24.35-38.18-39.66a27.21,27.21,0,0,1,4.62-14.75H169.22L144.68,83.81c9.34-.77,19-1.18,28.9-1.18a344.76,344.76,0,0,1,38.49,2.12c-.71-.23-1.43-.44-2.15-.66.72.22,1.44.43,2.15.66l2.46.29q-3.24-.83-6.6-1.57h0a315.53,315.53,0,0,0-67.51-7H140c-5.57,0-11.07.13-16.47.38q-2.7.14-5.37.3h0A297.48,297.48,0,0,0,70.59,83.8c-1.24.28-2.48.57-3.7.87A199.58,199.58,0,0,0,43.17,92C16.56,102.23,0,116.61,0,132.55,0,153,27.31,170.91,68.12,180.71Zm55.32-94.42,11.76,20.37H57.46C73.92,97.48,96.81,90.32,123.44,86.29Z"/><path class="cls-1" d="M317.6,47.51A6.25,6.25,0,0,0,313.4,49a5.88,5.88,0,0,0-1.77,4.72V86.27A5.87,5.87,0,0,0,313.4,91a6.55,6.55,0,0,0,8.39,0,5.84,5.84,0,0,0,1.78-4.71V53.74A5.85,5.85,0,0,0,321.79,49,6.24,6.24,0,0,0,317.6,47.51Z"/><polygon class="cls-1" points="537.44 56.94 533.12 79.26 541.94 79.26 537.61 56.94 537.44 56.94"/><path class="cls-1" d="M487.12,138a3.12,3.12,0,0,0,1.12.89,3.2,3.2,0,0,0,1.65.41,3.34,3.34,0,0,0,1.68-.41,3,3,0,0,0,1.08-.89,3.18,3.18,0,0,0,.72-1.51,22.32,22.32,0,0,0,.19-3.57,22.72,22.72,0,0,0-.19-3.59,3.16,3.16,0,0,0-.72-1.49,3.26,3.26,0,0,0-1.08-.92,4,4,0,0,0-1.68-.38,3.79,3.79,0,0,0-1.65.38,3.42,3.42,0,0,0-1.12.92,2.88,2.88,0,0,0-.7,1.49,21.19,21.19,0,0,0-.2,3.59,20.82,20.82,0,0,0,.2,3.57A2.91,2.91,0,0,0,487.12,138Z"/><path class="cls-1" d="M477,50.53a4.92,4.92,0,0,0-2.07-2.25,8.38,8.38,0,0,0-4-.77h-4.59V68.44h4.24a9,9,0,0,0,4.15-.78,4.83,4.83,0,0,0,2.17-2.16,8,8,0,0,0,.82-3.2c.09-1.27.13-2.68.13-4.24s0-2.81-.09-4.11A8.82,8.82,0,0,0,477,50.53Z"/><path class="cls-1" d="M664.36,129a2.38,2.38,0,0,0-.9-2,3.1,3.1,0,0,0-2-.56h-4.24v5.43h4.1a3,3,0,0,0,2.28-.89A2.74,2.74,0,0,0,664.36,129Z"/><polygon class="cls-1" points="266.15 127.67 263.56 135.48 268.79 135.48 266.2 127.67 266.15 127.67"/><path class="cls-2" d="M253,100.15A14.41,14.41,0,0,0,257.47,97a14.83,14.83,0,0,0,3-4.54,13.7,13.7,0,0,0,1.08-5.4V83.24h-8.82v3a7.58,7.58,0,0,1-.52,3,5.32,5.32,0,0,1-1.3,1.91,5.59,5.59,0,0,1-1.86,1,6.13,6.13,0,0,1-1.86.31c-2,0-3.42-.61-4.19-1.82a8.14,8.14,0,0,1-1.17-4.5V54.69a10.89,10.89,0,0,1,1.08-5.15c.72-1.36,2.18-2,4.37-2a4.76,4.76,0,0,1,4,1.9,7.15,7.15,0,0,1,1.47,4.5v2.94h8.82V53.39a16,16,0,0,0-1.08-5.93,14.38,14.38,0,0,0-3-4.71,13.4,13.4,0,0,0-10.13-4.07,15.3,15.3,0,0,0-5.84,1.08,13.65,13.65,0,0,0-4.54,3,13.2,13.2,0,0,0-2.94,4.5,15,15,0,0,0-1,5.62V86.79a15.84,15.84,0,0,0,1.34,7,13.59,13.59,0,0,0,3.42,4.46,12.14,12.14,0,0,0,4.67,2.42,19.81,19.81,0,0,0,5.11.69A13,13,0,0,0,253,100.15Z"/><path class="cls-2" d="M332.39,53.74a15.68,15.68,0,0,0-1.3-6.58,14.52,14.52,0,0,0-3.37-4.76,15.54,15.54,0,0,0-15.44-2.77,14.83,14.83,0,0,0-4.72,2.77,14,14,0,0,0-3.46,4.76,15.83,15.83,0,0,0-1.3,6.58V86.27a15.7,15.7,0,0,0,1.3,6.66,13.22,13.22,0,0,0,3.46,4.58,14,14,0,0,0,4.72,2.86,15.37,15.37,0,0,0,10.64,0,14.89,14.89,0,0,0,4.8-2.86,13.64,13.64,0,0,0,3.37-4.58,15.54,15.54,0,0,0,1.3-6.66Zm-8.82,32.53A5.84,5.84,0,0,1,321.79,91a6.55,6.55,0,0,1-8.39,0,5.87,5.87,0,0,1-1.77-4.71V53.74A5.88,5.88,0,0,1,313.4,49a6.58,6.58,0,0,1,8.39,0,5.85,5.85,0,0,1,1.78,4.72Z"/><polygon class="cls-2" points="394.77 71.82 394.6 71.82 383.26 39.2 374.79 39.2 374.79 100.8 383.61 100.8 383.61 63.34 383.78 63.34 392.44 89.81 396.85 89.81 405.59 63.34 405.76 63.34 405.76 100.8 414.58 100.8 414.58 39.2 406.02 39.2 394.77 71.82"/><path class="cls-2" d="M482.16,43.53a12.42,12.42,0,0,0-5-3.38,19.84,19.84,0,0,0-6.41-.95H457.5v61.6h8.82v-24h4.5a16.24,16.24,0,0,0,8-1.69,12.89,12.89,0,0,0,4.85-4.71,14.63,14.63,0,0,0,2-5.37,43.18,43.18,0,0,0,.48-7,35.28,35.28,0,0,0-.87-8.78A13.18,13.18,0,0,0,482.16,43.53ZM477.7,62.3a8,8,0,0,1-.82,3.2,4.83,4.83,0,0,1-2.17,2.16,9,9,0,0,1-4.15.78h-4.24V47.51h4.59a8.38,8.38,0,0,1,4,.77A4.92,4.92,0,0,1,477,50.53a8.82,8.82,0,0,1,.78,3.42q.09,1.95.09,4.11C477.83,59.62,477.79,61,477.7,62.3Z"/><path class="cls-2" d="M533.89,39.2l-13.75,61.6H529l2.6-13.24h12l2.6,13.24H555L541.25,39.2Zm-.78,40.06,4.33-22.32h.17l4.33,22.32Z"/><polygon class="cls-2" points="624.39 100.8 624.39 39.2 615.57 39.2 615.57 76.32 615.39 76.32 602.07 39.2 593.59 39.2 593.59 100.8 602.42 100.8 602.42 63.77 602.59 63.77 616.09 100.8 624.39 100.8"/><polygon class="cls-2" points="684 100.8 684 74.76 696.12 39.2 686.77 39.2 679.68 63.69 679.5 63.69 672.41 39.2 663.07 39.2 675.18 74.76 675.18 100.8 684 100.8"/><polygon class="cls-2" points="240.38 141.88 240.38 126.41 245.28 126.41 245.28 124 232.77 124 232.77 126.41 237.66 126.41 237.66 141.88 240.38 141.88"/><path class="cls-2" d="M265,124l-6.5,17.88h2.87l1.37-4h6.78l1.39,4h2.86L267.31,124Zm-1.47,11.48,2.58-7.81h.05l2.59,7.81Z"/><path class="cls-2" d="M293.34,127.86a3.57,3.57,0,0,1,1.13-.92,3.79,3.79,0,0,1,1.65-.38,3.56,3.56,0,0,1,2.2.75,3.89,3.89,0,0,1,1.21,1.84h2.87a6.84,6.84,0,0,0-2.06-3.77,6.48,6.48,0,0,0-9.83,1.68,5,5,0,0,0-.6,1.71,30.44,30.44,0,0,0-.18,4.17,30.69,30.69,0,0,0,.18,4.15,4.46,4.46,0,0,0,.25.95c.1.25.22.5.35.77A5.94,5.94,0,0,0,292.6,141a6.36,6.36,0,0,0,9.89-5.33V132h-6.35v2.57h3.64v.93a3.71,3.71,0,0,1-1,2.71,3.46,3.46,0,0,1-2.61,1.08,3.2,3.2,0,0,1-1.65-.41,3.24,3.24,0,0,1-1.13-.89,3,3,0,0,1-.69-1.51,19.8,19.8,0,0,1-.2-3.57,20.15,20.15,0,0,1,.2-3.59A3,3,0,0,1,293.34,127.86Z"/><polygon class="cls-2" points="320.73 124 320.73 141.88 332.15 141.88 332.15 139.32 323.44 139.32 323.44 124 320.73 124"/><rect class="cls-2" x="349.77" y="124" width="2.71" height="17.88"/><polygon class="cls-2" points="371.32 124 371.32 141.88 374.03 141.88 374.03 129.17 374.08 129.17 382.17 141.88 384.73 141.88 384.73 124 382.02 124 382.02 136.71 381.97 136.71 373.88 124 371.32 124"/><polygon class="cls-2" points="415 126.56 415 124 403.58 124 403.58 141.88 415 141.88 415 139.32 406.29 139.32 406.29 134.07 413.72 134.07 413.72 131.66 406.29 131.66 406.29 126.56 415 126.56"/><path class="cls-2" d="M453.89,127.06a5,5,0,0,0-.6,1.71,30.44,30.44,0,0,0-.18,4.17,30.69,30.69,0,0,0,.18,4.15,5.22,5.22,0,0,0,.24.95c.11.25.23.5.36.77A5.94,5.94,0,0,0,456,141a6.36,6.36,0,0,0,9.89-5.33V132h-6.35v2.57h3.64v.93a3.71,3.71,0,0,1-1.05,2.71,3.46,3.46,0,0,1-2.61,1.08,3.2,3.2,0,0,1-1.65-.41,3.24,3.24,0,0,1-1.13-.89,3.07,3.07,0,0,1-.7-1.51,21.15,21.15,0,0,1-.19-3.57,21.52,21.52,0,0,1,.19-3.59,3,3,0,0,1,.7-1.49,3.57,3.57,0,0,1,1.13-.92,3.79,3.79,0,0,1,1.65-.38,3.56,3.56,0,0,1,2.2.75,4,4,0,0,1,1.21,1.84h2.87a6.84,6.84,0,0,0-2.06-3.77,6.48,6.48,0,0,0-9.83,1.68Z"/><path class="cls-2" d="M484.28,127.06a5,5,0,0,0-.6,1.71,30.44,30.44,0,0,0-.18,4.17,30.69,30.69,0,0,0,.18,4.15,5.15,5.15,0,0,0,.25.95c.1.25.22.5.35.77a6,6,0,0,0,2.09,2.19,6.28,6.28,0,0,0,3.52,1,6.42,6.42,0,0,0,3.56-1,5.83,5.83,0,0,0,2-2.19,4.18,4.18,0,0,0,.63-1.72,36,36,0,0,0,.16-4.15,35.69,35.69,0,0,0-.16-4.17,4.3,4.3,0,0,0-.63-1.71,6,6,0,0,0-2-2.2,6.26,6.26,0,0,0-3.56-1,6.12,6.12,0,0,0-3.52,1A6.2,6.2,0,0,0,484.28,127.06Zm2.14,2.29a2.88,2.88,0,0,1,.7-1.49,3.42,3.42,0,0,1,1.12-.92,3.79,3.79,0,0,1,1.65-.38,4,4,0,0,1,1.68.38,3.26,3.26,0,0,1,1.08.92,3.16,3.16,0,0,1,.72,1.49,22.72,22.72,0,0,1,.19,3.59,22.32,22.32,0,0,1-.19,3.57,3.18,3.18,0,0,1-.72,1.51,3,3,0,0,1-1.08.89,3.34,3.34,0,0,1-1.68.41,3.2,3.2,0,0,1-1.65-.41,3.12,3.12,0,0,1-1.12-.89,2.91,2.91,0,0,1-.7-1.51,20.82,20.82,0,0,1-.2-3.57A21.19,21.19,0,0,1,486.42,129.35Z"/><polygon class="cls-2" points="514.5 141.88 525.92 141.88 525.92 139.32 517.21 139.32 517.21 134.07 524.65 134.07 524.65 131.66 517.21 131.66 517.21 126.56 525.92 126.56 525.92 124 514.5 124 514.5 141.88"/><path class="cls-2" d="M548.85,139.32a7.86,7.86,0,0,1-5.08-1.78l-1.78,2a10.15,10.15,0,0,0,6.83,2.45q6.15-.08,6.28-5.2a5.1,5.1,0,0,0-1.19-3.34,5.58,5.58,0,0,0-3.72-1.8c-.85-.11-1.52-.2-2-.28a3.45,3.45,0,0,1-1.92-.89,2,2,0,0,1-.6-1.4,2.3,2.3,0,0,1,.89-1.93,3.37,3.37,0,0,1,2.09-.63,8.16,8.16,0,0,1,4.43,1.38l1.5-2.24a10.07,10.07,0,0,0-5.8-1.85,6.1,6.1,0,0,0-4.28,1.45,4.89,4.89,0,0,0-1.56,3.78,4.77,4.77,0,0,0,1.24,3.31,5.84,5.84,0,0,0,3.51,1.7q1.29.19,2.37.33c1.57.27,2.34,1.08,2.33,2.41Q552.34,139.28,548.85,139.32Z"/><polygon class="cls-2" points="606.63 141.88 606.63 124 603.91 124 603.91 131.66 596.84 131.66 596.84 124 594.13 124 594.13 141.88 596.84 141.88 596.84 134.07 603.91 134.07 603.91 141.88 606.63 141.88"/><polygon class="cls-2" points="636.89 126.56 636.89 124 625.48 124 625.48 141.88 636.89 141.88 636.89 139.32 628.19 139.32 628.19 134.07 635.62 134.07 635.62 131.66 628.19 131.66 628.19 126.56 636.89 126.56"/><path class="cls-2" d="M663.46,133.94a5,5,0,0,0,3.46-4.95,4.74,4.74,0,0,0-1.78-3.81A5.46,5.46,0,0,0,661.5,124h-7v17.88h2.71v-7.64h3.46l3.69,7.64h3.23Zm-6.23-2.1v-5.43h4.24a3.1,3.1,0,0,1,2,.56,2.38,2.38,0,0,1,.9,2,2.74,2.74,0,0,1-.75,2,3,3,0,0,1-2.28.89Z"/><polygon class="cls-2" points="696.33 126.56 696.33 124 684.91 124 684.91 141.88 696.33 141.88 696.33 139.32 687.62 139.32 687.62 134.07 695.05 134.07 695.05 131.66 687.62 131.66 687.62 126.56 696.33 126.56"/></g></g></svg>